<?xml version="1.0" encoding="UTF-8" standalone="no"?>
<!-- Created with Inkscape (http://www.inkscape.org/) -->

<svg
   xmlns:dc="http://purl.org/dc/elements/1.1/"
   xmlns:cc="http://creativecommons.org/ns#"
   xmlns:rdf="http://www.w3.org/1999/02/22-rdf-syntax-ns#"
   xmlns:svg="http://www.w3.org/2000/svg"
   xmlns="http://www.w3.org/2000/svg"
   xmlns:sodipodi="http://sodipodi.sourceforge.net/DTD/sodipodi-0.dtd"
   xmlns:inkscape="http://www.inkscape.org/namespaces/inkscape"
   width="210mm"
   height="210mm"
   viewBox="0 0 210 210"
   version="1.1"
   id="svg8"
   inkscape:version="0.92.5 (2060ec1f9f, 2020-04-08)"
   sodipodi:docname="phaselocker_logo.svg">
  <defs
     id="defs2">
    <inkscape:path-effect
       effect="bspline"
       id="path-effect879"
       is_visible="true"
       weight="33.333333"
       steps="2"
       helper_size="0"
       apply_no_weight="true"
       apply_with_weight="true"
       only_selected="false" />
    <inkscape:path-effect
       effect="bspline"
       id="path-effect870"
       is_visible="true"
       weight="33.333333"
       steps="2"
       helper_size="0"
       apply_no_weight="true"
       apply_with_weight="true"
       only_selected="false" />
    <inkscape:path-effect
       effect="bspline"
       id="path-effect866"
       is_visible="true"
       weight="33.333333"
       steps="2"
       helper_size="0"
       apply_no_weight="true"
       apply_with_weight="true"
       only_selected="false" />
    <inkscape:path-effect
       effect="bspline"
       id="path-effect862"
       is_visible="true"
       weight="33.333333"
       steps="2"
       helper_size="0"
       apply_no_weight="true"
       apply_with_weight="true"
       only_selected="false" />
    <inkscape:path-effect
       effect="bspline"
       id="path-effect846"
       is_visible="true"
       weight="33.333333"
       steps="2"
       helper_size="0"
       apply_no_weight="true"
       apply_with_weight="true"
       only_selected="false" />
    <clipPath
       id="clipPath943-3-9-6-6-4"
       clipPathUnits="userSpaceOnUse">
      <path
         style="clip-rule:evenodd"
         inkscape:connector-curvature="0"
         id="path941-6-3-0-6-5"
         d="m 250,187.5 h 1609.375 v 1125 H 250 Z" />
    </clipPath>
  </defs>
  <sodipodi:namedview
     id="base"
     pagecolor="#ffffff"
     bordercolor="#666666"
     borderopacity="1.0"
     inkscape:pageopacity="0.0"
     inkscape:pageshadow="2"
     inkscape:zoom="0.5"
     inkscape:cx="492.81254"
     inkscape:cy="454.27739"
     inkscape:document-units="mm"
     inkscape:current-layer="g875"
     showgrid="false"
     inkscape:window-width="1862"
     inkscape:window-height="1016"
     inkscape:window-x="58"
     inkscape:window-y="27"
     inkscape:window-maximized="1" />
  <metadata
     id="metadata5">
    <rdf:RDF>
      <cc:Work
         rdf:about="">
        <dc:format>image/svg+xml</dc:format>
        <dc:type
           rdf:resource="http://purl.org/dc/dcmitype/StillImage" />
        <dc:title></dc:title>
      </cc:Work>
    </rdf:RDF>
  </metadata>
  <g
     inkscape:label="Layer 1"
     inkscape:groupmode="layer"
     id="layer1"
     transform="translate(0,-87)"
     sodipodi:insensitive="true">
    <g
       style="stroke:#000000;stroke-opacity:1"
       id="g939-5-2-4-2"
       clip-path="url(#clipPath943-3-9-6-6-4)"
       transform="matrix(0.26636651,0,0,0.2686689,-176.42603,-9.5202954)"
       inkscape:export-xdpi="96"
       inkscape:export-ydpi="96">
      <g
         style="stroke:#000000;stroke-opacity:1"
         id="g945-3-6-9-54"
         transform="matrix(3.125,0,0,3.125,250,187.5)">
        <path
           d="m 377.5,180 -0.76999,-13.57001 -0.18002,-1.5 -2.47,-13.36999 -0.37,-1.45999 -4.11999,-12.95002 -0.54999,-1.40999 -5.72,-12.33 -0.72,-1.33 -7.22001,-11.51 -0.89001,-1.23 -8.60999,-10.509998 -1.02999,-1.110001 -9.86002,-9.349998 -1.16,-0.970001 -10.95999,-8.029999 -1.28,-0.82 -11.88001,-6.600006 -1.35998,-0.639999 -12.62,-5.059998 -1.44,-0.470001 -13.15,-3.430001 -1.48001,-0.289997 -13.48001,-1.75 -1.50998,-0.100002 -13.59001,-0.04 -1.50999,0.09 L 236.08,61.93 l -1.47999,0.279999 -13.17002,3.340004 -1.43998,0.459999 -12.65001,4.979996 -1.37,0.639999 -11.92,6.520005 -1.28,0.809997 -11.01001,7.970001 -1.16999,0.959999 -9.92,9.279999 -1.04,1.099999 -8.68,10.460003 -0.89,1.23 -7.29,11.46 -0.73001,1.33 -5.79999,12.28999 -0.56001,1.40001 -4.19999,12.92999 -0.37999,1.46001 -2.55001,13.34999 -0.19,1.5 -0.86,13.56002 v 1.51998 l 0.86,13.56002 0.19,1.5 2.55001,13.34999 0.37999,1.46 4.19999,12.93 0.56001,1.40001 5.79999,12.28999 0.73001,1.33 7.29,11.45999 0.89,1.23001 8.68,10.46001 1.04,1.09998 9.92,9.28 1.16999,0.96002 9.74001,7.14999 1.27,0.82001 11.84,6.67999 1.36,0.65 12.58,5.13 1.44001,0.48999 13.12999,3.51001 1.48001,0.29001 13.47,1.83999 1.5,0.10999 13.58999,0.13001 1.51001,-0.08 13.5,-1.58002 1.48999,-0.26999 13.19001,-3.26999 1.44,-0.45001 12.67999,-4.89001 1.38001,-0.63999 11.95999,-6.44 1.28,-0.79999 11.07,-7.90002 1.16999,-0.94998 9.98001,-9.23001 1.04001,-1.09 8.75,-10.41 0.88998,-1.21 7.37,-11.41999 0.74002,-1.32001 5.86999,-12.26 0.57001,-1.40001 4.28998,-12.89999 0.38,-1.46001 2.64002,-13.32998 0.19998,-1.5 0.94,-13.56002 L 377.5,180"
           style="fill:none;stroke:#000000;stroke-width:1;stroke-linecap:butt;stroke-linejoin:miter;stroke-miterlimit:10;stroke-dasharray:none;stroke-opacity:1"
           id="path947-5-1-5-7"
           inkscape:connector-curvature="0" />
        <path
           d="M 257.5,180 150.17,126.33"
           style="fill:none;stroke:#000000;stroke-width:1;stroke-linecap:butt;stroke-linejoin:miter;stroke-miterlimit:10;stroke-dasharray:none;stroke-opacity:1"
           id="path949-6-8-0-4"
           inkscape:connector-curvature="0" />
        <path
           d="M 257.5,180 172.64999,95.150002"
           style="fill:none;stroke:#000000;stroke-width:1;stroke-linecap:butt;stroke-linejoin:miter;stroke-miterlimit:10;stroke-dasharray:none;stroke-opacity:1"
           id="path951-2-7-4-4"
           inkscape:connector-curvature="0" />
        <path
           d="M 257.5,180 V 300"
           style="fill:none;stroke:#000000;stroke-width:1;stroke-linecap:butt;stroke-linejoin:miter;stroke-miterlimit:10;stroke-dasharray:none;stroke-opacity:1"
           id="path953-9-9-8-3"
           inkscape:connector-curvature="0" />
        <path
           d="M 257.5,180 V 60"
           style="fill:none;stroke:#000000;stroke-width:1;stroke-linecap:butt;stroke-linejoin:miter;stroke-miterlimit:10;stroke-dasharray:none;stroke-opacity:1"
           id="path955-1-2-7-0"
           inkscape:connector-curvature="0" />
        <path
           d="M 257.5,180 342.35001,95.150002"
           style="fill:none;stroke:#000000;stroke-width:1;stroke-linecap:butt;stroke-linejoin:miter;stroke-miterlimit:10;stroke-dasharray:none;stroke-opacity:1"
           id="path957-2-0-1-7"
           inkscape:connector-curvature="0" />
        <path
           d="M 257.5,180 375.17001,156.47"
           style="fill:none;stroke:#000000;stroke-width:1;stroke-linecap:butt;stroke-linejoin:miter;stroke-miterlimit:10;stroke-dasharray:none;stroke-opacity:1"
           id="path959-7-2-7-8"
           inkscape:connector-curvature="0" />
        <path
           d="m 257.5,180 h 120"
           style="fill:none;stroke:#000000;stroke-width:1;stroke-linecap:butt;stroke-linejoin:miter;stroke-miterlimit:10;stroke-dasharray:none;stroke-opacity:1"
           id="path961-0-3-2-6"
           inkscape:connector-curvature="0" />
      </g>
    </g>
  </g>
  <g
     inkscape:groupmode="layer"
     id="layer2"
     inkscape:label="Cone"
     sodipodi:insensitive="true">
    <path
       style="fill:#000000;fill-opacity:1;stroke:#000000;stroke-width:0.26458332px;stroke-linecap:butt;stroke-linejoin:miter;stroke-opacity:1"
       d="m 101.97411,103.39644 c 19.8705,-20.05581 39.74074,-40.111346 49.72444,-50.181327 9.98371,-10.069982 10.08092,-10.154474 10.18204,-10.153288 0.10112,0.0012 0.21091,0.09143 0.42803,0.295037 0.21712,0.203608 0.544,0.522609 1.14638,1.191924 0.60239,0.669316 1.48041,1.689076 2.47063,2.872231 0.99023,1.183154 2.09263,2.529663 3.19642,3.968635 1.10378,1.438973 2.20349,2.962855 3.10907,4.329085 0.90557,1.36623 1.61426,2.570993 2.31117,3.72465 0.69692,1.153656 1.38196,2.256013 2.06312,3.51596 0.68116,1.259946 1.35832,2.677263 1.93318,3.945094 0.57486,1.267832 1.04729,2.385922 1.57492,3.669545 0.52763,1.283624 1.11027,2.732367 1.57882,4.086821 0.46855,1.354454 0.82287,2.614258 1.23465,4.012615 0.41178,1.398357 0.88086,2.934714 1.2437,4.285768 0.36285,1.351053 0.61933,2.516363 0.72615,3.123638 0.10681,0.607276 0.0637,0.656433 -0.0454,0.701442 -0.10906,0.04501 -0.28206,0.08515 -14.11546,2.855013 -13.83339,2.769866 -41.28793,8.261568 -68.7619,13.757157 0,0 0,0 0,0"
       id="path844"
       inkscape:connector-curvature="0"
       inkscape:path-effect="#path-effect846"
       inkscape:original-d="m 101.97411,103.39644 c 19.87051,-20.055805 39.74074,-40.111343 59.61071,-60.16662 0.0974,-0.08473 0.19463,-0.169198 0.29154,-0.253399 0.10751,0.08396 0.21538,0.176543 0.32267,0.265213 0.32697,0.318569 0.65385,0.637569 0.98038,0.956752 0.87826,1.019474 1.75628,2.039231 2.63402,3.059245 1.10272,1.346303 2.20512,2.692815 3.30729,4.039621 1.11059,1.527421 2.20512,3.055041 3.30729,4.582959 0.70899,1.204574 1.41768,2.409335 2.12612,3.614399 0.68539,1.102241 1.37043,2.204595 2.05524,3.307291 0.67752,1.417238 1.35468,2.834556 2.03162,4.252233 0.47278,1.118002 0.94521,2.236094 1.41742,3.354538 0.58304,1.448811 1.16569,2.897553 1.74814,4.346726 0.35465,1.259774 0.70897,2.519577 1.06305,3.779761 0.46948,1.536522 0.93856,3.072878 1.40743,4.609713 0.25681,1.165302 0.51329,2.330612 0.76953,3.496315 -0.0429,0.04893 -0.086,0.09811 -0.12946,0.147564 -0.17473,0.04034 -0.34774,0.08047 -0.52201,0.121108 -27.48978,5.512757 -54.94705,10.990789 -82.42098,16.486581 0,0 2.7e-4,-2.7e-4 0,0"
       transform="matrix(1.1790668,0,0,1.1790668,-15.726901,-16.929924)" />
  </g>
  <g
     inkscape:groupmode="layer"
     id="layer3"
     inkscape:label="lock"
     sodipodi:insensitive="true">
    <g
       id="g875"
       transform="translate(-0.58126235,15.803667)"
       style="fill:#ffffff;fill-opacity:1">
      <g
         id="g884"
         transform="matrix(1.1790668,0,0,1.1790668,-15.830986,-14.100012)">
        <path
           style="fill:#000000;fill-opacity:1;stroke:#000000;stroke-width:0.26458332px;stroke-linecap:butt;stroke-linejoin:miter;stroke-opacity:1"
           d="m 66.845197,155.34051 c 0.04452,0.16417 0.133608,0.49269 0.323019,0.82416 0.189411,0.33148 0.478797,0.66538 0.762827,0.91599 0.284031,0.2506 0.562419,0.41763 1.007867,0.51784 0.445448,0.1002 1.058116,0.13362 12.223059,0.13309 11.164942,-5.3e-4 32.900011,-0.035 43.816291,-0.0582 10.91628,-0.0231 11.02259,-0.035 11.23281,-0.15875 0.21021,-0.12379 0.52605,-0.36067 0.79167,-0.64207 0.26561,-0.2814 0.48237,-0.6085 0.61021,-11.14667 0.12784,-10.53816 0.16725,-31.32659 0.18693,-41.82133 0.0197,-10.494745 0.0197,-10.730981 -0.11798,-11.053494 -0.13766,-0.322513 -0.41359,-0.740341 -0.85051,-1.106425 C 136.39447,91.378607 135.79591,91.063575 124.57895,90.91 113.36198,90.756424 91.533497,90.764299 80.50724,90.785932 69.480983,90.807564 69.260496,90.843 68.978751,90.986794 c -0.281746,0.143795 -0.623821,0.395437 -0.962606,0.736159 -0.338785,0.340723 -0.67316,0.769509 -0.827231,1.114179 -0.154071,0.34467 -0.125727,0.620015 -0.161193,10.995758 -0.03547,10.37575 -0.133811,30.82363 -0.18217,41.06555 -0.04836,10.24192 -0.04663,10.2598 -0.04575,10.26889 8.78e-4,0.009 8.76e-4,0.009 0.0454,0.17318 z"
           id="path860"
           inkscape:connector-curvature="0"
           inkscape:path-effect="#path-effect862"
           inkscape:original-d="m 66.800676,155.17634 c 0.08935,0.32826 0.178446,0.65677 0.267269,0.98556 0.289968,0.334 0.57935,0.66791 0.868627,1.00226 0.278688,0.16679 0.557078,0.33382 0.835218,0.50113 0.612585,0.0331 1.225249,0.0666 1.837479,0.10023 21.717642,-0.0347 43.452711,-0.0692 65.178681,-0.10341 0.10656,-0.0121 0.21287,-0.0239 0.31891,-0.0354 0.31439,-0.23586 0.63023,-0.47274 0.94494,-0.70871 0.21661,-0.32675 0.43337,-0.65385 0.64965,-0.98037 0.0396,-20.74985 0.079,-41.53828 0.11812,-62.307015 0.008,-0.22075 2.6e-4,-0.456986 0,-0.685083 -0.27503,-0.417129 -0.55095,-0.834962 -0.82683,-1.252046 -0.5981,-0.315198 -1.19666,-0.630226 -1.79538,-0.94494 -21.83538,0.0076 -43.663863,0.01548 -65.496189,0.02363 -0.220223,0.03517 -0.440709,0.07061 -0.661458,0.106307 -0.342742,0.25206 -0.684816,0.503703 -1.027623,0.755951 -0.334693,0.429271 -0.669068,0.858057 -1.003999,1.287481 0.02785,0.259774 0.05539,0.535202 0.08268,0.803201 -0.09825,20.483524 -0.196598,40.931404 -0.295293,61.397504 0.0021,0.0177 0.0037,0.0356 0.0052,0.0538 z"
           transform="translate(-0.13228996,-0.396875)" />
        <path
           style="fill:#ffffff;fill-opacity:1;stroke:#000000;stroke-width:0.26458332px;stroke-linecap:butt;stroke-linejoin:miter;stroke-opacity:1"
           d="m 98.511118,127.72121 c -0.345198,2.01133 -1.035644,6.03429 -1.375337,8.09732 -0.339693,2.06302 -0.328557,2.16602 -0.283807,2.22604 0.04475,0.06 0.122512,0.0767 1.938778,0.0899 1.816268,0.0132 5.388948,0.0229 7.186058,0.0243 1.79711,0.001 1.82777,-0.006 1.87131,-0.0492 0.0435,-0.0436 0.10117,-0.12511 -0.25638,-2.1891 -0.35754,-2.06399 -1.13524,-6.14164 -1.52458,-8.19629 -0.38934,-2.05465 -0.39324,-2.10145 -0.33977,-2.15581 0.0535,-0.0544 0.16513,-0.11705 0.33921,-0.21625 0.17409,-0.0992 0.41252,-0.236 0.63551,-0.38403 0.223,-0.14803 0.4318,-0.30805 0.72871,-0.58453 0.29691,-0.27647 0.68332,-0.67069 0.98724,-1.03308 0.30391,-0.36239 0.52623,-0.69392 0.77748,-1.14385 0.25125,-0.44992 0.53214,-1.01952 0.71915,-1.55335 0.18701,-0.53384 0.28061,-1.03302 0.341,-1.63498 0.0604,-0.60196 0.0877,-1.30787 -0.0331,-1.98587 -0.1208,-0.678 -0.38984,-1.32916 -0.69772,-1.91762 -0.30788,-0.58847 -0.65484,-1.11476 -1.066,-1.63309 -0.41116,-0.51834 -0.88673,-1.02899 -1.36414,-1.41094 -0.47742,-0.38194 -0.95684,-0.63529 -1.47136,-0.85942 -0.51452,-0.22414 -1.06398,-0.41898 -1.57265,-0.53983 -0.50866,-0.12085 -0.97627,-0.16761 -1.54547,-0.16373 -0.56921,0.004 -1.23927,0.0584 -1.75187,0.16364 -0.5126,0.10522 -0.867141,0.26106 -1.272711,0.48138 -0.405569,0.22032 -0.860604,0.50423 -1.231078,0.74657 -0.370474,0.24233 -0.653753,0.44139 -0.889843,0.63061 -0.23609,0.18923 -0.423725,0.36774 -0.712171,0.71195 -0.288445,0.3442 -0.678603,0.85531 -1.008071,1.39139 -0.329469,0.53609 -0.598253,1.09703 -0.756178,1.55316 -0.157926,0.45614 -0.204672,0.80674 -0.224177,1.52048 -0.0195,0.71374 -0.01171,1.7886 0.07013,2.46302 0.08185,0.67442 0.237714,0.94719 0.502817,1.39163 0.265103,0.44444 0.639163,1.06008 0.960777,1.4772 0.321613,0.41711 0.590518,0.63535 0.931536,0.9335 0.341017,0.29815 0.754214,0.67626 1.054849,0.92377 0.300636,0.24752 0.488708,0.36446 0.605606,0.44239 0.116899,0.0779 0.162715,0.11693 0.175914,0.16352 0.0132,0.0466 -0.0063,0.10118 -0.0291,0.13721 -0.02281,0.036 -0.04885,0.0532 -0.06208,0.0619 -0.01323,0.009 -0.0133,0.009 -0.358495,2.0201 z"
           id="path864"
           inkscape:connector-curvature="0"
           inkscape:path-effect="#path-effect866"
           inkscape:original-d="m 98.856315,125.70988 c -0.690182,4.0227 -1.380628,8.04566 -2.071339,12.06889 0.0114,0.10275 0.02254,0.20575 0.03341,0.30903 0.0784,0.0165 0.156173,0.0331 0.23386,0.0501 3.554774,0.009 7.127454,0.0192 10.690784,0.0292 0.0309,-0.007 0.0615,-0.0142 0.0919,-0.0209 0.0568,-0.0802 0.11441,-0.16174 0.17122,-0.24221 -0.77165,-4.04761 -1.54934,-8.12526 -2.32441,-12.18749 -0.004,-0.047 -0.008,-0.0938 -0.0117,-0.14032 0.11077,-0.0623 0.22243,-0.12499 0.33325,-0.18709 0.23735,-0.13629 0.47578,-0.2731 0.71327,-0.40925 0.20852,-0.15986 0.41732,-0.31988 0.62558,-0.47942 0.38559,-0.39337 0.772,-0.78759 1.15761,-1.18099 0.22228,-0.33134 0.4446,-0.66287 0.66651,-0.99391 0.28063,-0.5688 0.56153,-1.13839 0.84189,-1.70719 0.0938,-0.49888 0.18736,-0.99807 0.28064,-1.4967 0.0275,-0.70532 0.0548,-1.41123 0.0819,-2.11645 -0.26857,-0.65092 -0.53762,-1.30208 -0.80682,-1.95273 -0.34656,-0.52635 -0.69352,-1.05264 -1.04068,-1.57856 -0.4752,-0.5108 -0.95077,-1.02146 -1.42655,-1.53179 -0.47915,-0.25361 -0.95857,-0.50697 -1.43825,-0.76005 -0.54942,-0.19519 -1.09888,-0.39003 -1.64872,-0.58465 -0.46758,-0.047 -0.93518,-0.0938 -1.40316,-0.14032 -0.67048,0.0543 -1.34054,0.10887 -2.0112,0.1637 -0.35458,0.15571 -0.709118,0.31155 -1.06407,0.46773 -0.456176,0.28452 -0.91121,0.56843 -1.368087,0.85359 -0.284062,0.19953 -0.567344,0.39858 -0.85189,0.59861 -0.187602,0.17847 -0.375235,0.35699 -0.562969,0.53561 -0.389114,0.50982 -0.779269,1.02093 -1.169302,1.53179 -0.268833,0.56133 -0.537618,1.12227 -0.806821,1.6838 -0.04653,0.35072 -0.09328,0.70132 -0.140316,1.05237 0.0081,1.0764 0.01585,2.15126 0.02339,3.22728 0.15621,0.27264 0.312079,0.54541 0.46772,0.81852 0.37456,0.61576 0.74862,1.2314 1.122532,1.8475 0.26924,0.21803 0.538146,0.43627 0.80682,0.65481 0.413375,0.37777 0.826574,0.75588 1.239462,1.13422 0.188322,0.11666 0.376391,0.2336 0.56419,0.35079 0.04605,0.0387 0.09186,0.0777 0.137395,0.11693 -0.01921,0.0543 -0.03871,0.10887 -0.05847,0.16371 -0.02606,0.0171 -0.05208,0.0343 -0.07851,0.0518 z"
           sodipodi:nodetypes="ccccccccccccccccccccccccccccccccccccccccc"
           transform="translate(-0.21918749,0.28338666)" />
        <path
           style="fill:#000000;fill-opacity:1;stroke:#000000;stroke-width:0.26458332px;stroke-linecap:butt;stroke-linejoin:miter;stroke-opacity:1"
           d="m 71.912207,86.381033 c 0.02339,-3.835452 0.07016,-11.506088 0.132534,-15.73117 0.06238,-4.225083 0.140331,-5.004646 0.304011,-5.900936 0.16368,-0.89629 0.413225,-1.910062 0.849689,-3.273992 0.436465,-1.363929 1.060285,-3.079435 1.691686,-4.466907 0.6314,-1.387471 1.270738,-2.447838 2.034565,-3.609156 0.763827,-1.161319 1.65276,-2.424539 2.837508,-3.757356 1.184747,-1.332816 2.666219,-2.736316 4.123837,-3.913301 1.457619,-1.176985 2.892228,-2.128193 4.264079,-2.876455 1.371851,-0.748262 2.681751,-1.294053 3.897688,-1.722737 1.215936,-0.428684 2.338742,-0.740575 3.422148,-1.005575 1.083405,-0.265001 2.128276,-0.483331 3.079171,-0.623617 0.950896,-0.140285 1.808637,-0.202667 2.860797,-0.218249 1.05215,-0.01558 2.29982,0.01561 3.53914,0.101358 1.23933,0.08575 2.47125,0.226091 3.7885,0.522285 1.31725,0.296194 2.72068,0.74841 4.24845,1.34861 1.52778,0.6002 3.18058,1.348638 4.63043,2.229464 1.44985,0.880825 2.69719,1.894297 4.02238,3.047988 1.32518,1.153691 2.72839,2.447752 3.74955,3.570242 1.02116,1.12249 1.66039,2.073534 2.5335,3.585881 0.87311,1.512347 1.97998,3.585784 2.64259,5.059083 0.66261,1.473299 0.88087,2.346339 1.13036,3.531384 0.24948,1.185044 0.53006,2.681434 0.72448,4.303 0.19442,1.621566 0.3045,3.398606 0.35908,5.027933 0.0546,1.629326 0.0546,3.125825 0.039,4.334183 -0.0156,1.208358 -0.0467,2.128051 -0.0389,4.443829 0.008,2.315778 0.0546,6.025267 0.075,7.969478 0.0205,1.944212 0.0146,2.122001 -0.0151,2.242062 -0.0297,0.120061 -0.0806,0.17901 -1.7266,0.167939 -1.646,-0.01107 -4.85559,-0.09337 -6.4928,-0.148481 -1.63721,-0.05511 -1.68682,-0.08267 -1.71165,-0.285728 -0.0248,-0.203061 -0.0248,-0.579959 -0.003,-2.221605 0.0214,-1.641646 0.0642,-4.551428 0.0856,-7.56033 0.0214,-3.008902 0.0214,-6.119537 0.0175,-8.504865 -0.004,-2.385327 -0.0117,-4.045845 -0.10135,-5.331979 -0.0897,-1.286135 -0.26118,-2.198336 -0.5184,-3.098567 -0.25721,-0.900231 -0.60029,-1.789102 -1.04458,-2.704955 -0.44429,-0.915852 -0.99005,-1.859239 -1.78122,-2.942708 -0.79117,-1.083469 -1.82805,-2.307451 -2.98561,-3.387072 -1.15757,-1.07962 -2.43603,-2.015079 -3.8275,-2.837493 -1.39146,-0.822413 -2.89591,-1.531766 -4.3894,-2.019116 -1.4935,-0.487349 -2.97315,-0.752131 -4.25944,-0.892465 -1.28629,-0.140335 -2.37748,-0.155922 -3.57421,-0.07017 -1.196725,0.08575 -2.49824,0.272793 -3.663753,0.611892 -1.165513,0.3391 -2.194266,0.830095 -3.076022,1.257344 -0.881757,0.42725 -1.628351,0.796618 -2.673228,1.478895 -1.044878,0.682277 -2.392897,1.679654 -3.613035,2.96992 -1.220139,1.290265 -2.311248,2.872373 -3.179998,4.473125 -0.868751,1.600752 -1.516714,3.224561 -1.941614,4.530388 -0.424899,1.305827 -0.627538,2.295643 -0.763776,3.45328 -0.136238,1.157637 -0.206806,2.498417 -0.222401,6.346097 -0.0156,3.84768 0.02337,10.207369 0.03122,13.426827 0.0078,3.219457 -0.01554,3.297412 -0.230645,3.34828 -0.215101,0.05087 -0.618819,0.07416 -2.143729,0.07806 -1.52491,0.0039 -4.165719,-0.01168 -5.541662,-0.03894 -1.375943,-0.02726 -1.485067,-0.06623 -1.543621,-0.14832 -0.05855,-0.08209 -0.06634,-0.206643 -0.07023,-0.268882 -0.0039,-0.06224 -0.004,-0.06225 0.01941,-3.8977 z"
           id="path868"
           inkscape:connector-curvature="0"
           inkscape:path-effect="#path-effect870"
           inkscape:original-d="m 71.88882,90.216484 c 0.04704,-7.670901 0.09381,-15.341537 0.140317,-23.011905 0.07822,-0.779775 0.156172,-1.559338 0.233859,-2.33861 0.249624,-1.013286 0.499169,-2.027058 0.748356,-3.04019 0.623702,-1.714719 1.247524,-3.430225 1.870887,-5.144939 0.639366,-1.060236 1.278702,-2.120604 1.917658,-3.180508 0.888674,-1.262743 1.777608,-2.525962 2.666013,-3.788545 1.481031,-1.403094 2.962502,-2.806594 4.443357,-4.209495 1.434348,-0.951124 2.868956,-1.902333 4.30304,-2.853102 1.309606,-0.545822 2.619505,-1.091616 3.928861,-1.637025 1.122522,-0.312005 2.245329,-0.623895 3.367596,-0.935445 1.044551,-0.218472 2.089422,-0.436803 3.133735,-0.654809 0.857502,-0.06261 1.715241,-0.124989 2.572471,-0.18709 1.24711,0.03091 2.49478,0.0621 3.74177,0.09355 1.23168,0.140023 2.4636,0.280369 3.695,0.42095 1.40317,0.451781 2.8066,0.903996 4.2095,1.356391 1.65269,0.748004 3.30549,1.496447 4.95785,2.245064 1.24743,1.013061 2.49478,2.026531 3.74177,3.040192 1.4034,1.293733 2.8066,2.587795 4.2095,3.882089 0.63947,0.950761 1.2787,1.901803 1.91766,2.853102 1.10727,2.073431 2.21414,4.146868 3.32082,6.220698 0.21854,0.872858 0.4368,1.745898 0.65481,2.619243 0.28096,1.496764 0.56153,2.993154 0.8419,4.490127 0.10941,1.746139 0.21853,3.523239 0.3274,5.285256 2.7e-4,1.496653 2.7e-4,2.993152 0,4.490127 -0.0309,0.91975 -0.0621,1.839442 -0.0935,2.759557 0.0471,3.711429 0.0938,7.420919 0.14032,11.131777 -0.006,0.177562 -0.0114,0.355365 -0.0175,0.533445 -0.0522,0.06322 -0.10446,0.121002 -0.15709,0.181901 -3.23937,-0.08333 -6.44896,-0.165629 -9.67383,-0.248047 -0.0494,-0.02783 -0.099,-0.05539 -0.14883,-0.08268 2.7e-4,-0.378532 2.7e-4,-0.75543 0,-1.132747 0.043,-2.905972 0.0858,-5.815754 0.12838,-8.723233 2.6e-4,-3.110328 2.6e-4,-6.220963 0,-9.331048 -0.0153,-1.660535 -0.0153,-3.321089 -0.0234,-4.981236 -0.17121,-0.912177 -0.34273,-1.824379 -0.51449,-2.736172 -0.34266,-0.888733 -0.68573,-1.777606 -1.02899,-2.666014 -0.54533,-0.943353 -1.09109,-1.886741 -1.63703,-2.829716 -1.03642,-1.224028 -2.0733,-2.448007 -3.11035,-3.671615 -1.27815,-0.935691 -2.55661,-1.871151 -3.83532,-2.806329 -1.50429,-0.709668 -3.00874,-1.419021 -4.51351,-2.128134 -1.48096,-0.273124 -2.96197,-0.530349 -4.44335,-0.795128 -1.09125,-0.01585 -2.18244,-0.03145 -3.27406,-0.04677 -1.301867,0.186868 -2.603382,0.373912 -3.90547,0.561266 -1.028959,0.490956 -2.057712,0.981951 -3.086965,1.473322 -0.732727,0.366231 -1.480855,0.732499 -2.221677,1.099148 -1.348912,0.997969 -2.69693,1.995347 -4.045792,2.993416 -1.091327,1.582545 -2.182437,3.164652 -3.274052,4.747377 -0.639077,1.62148 -1.293765,3.242606 -1.941047,4.864303 -0.202454,0.989942 -0.405093,1.979758 -0.608036,2.970033 -0.06212,1.325359 -0.140052,2.665751 -0.210476,3.999021 0.03925,6.362075 0.07822,12.721764 0.11693,19.083043 -0.02312,0.07769 -0.04651,0.155644 -0.07016,0.233863 -0.406736,0.0232 -0.810453,0.04651 -1.216075,0.07016 -2.644182,-0.01587 -5.284991,-0.03145 -7.927882,-0.04677 -0.108882,-0.03925 -0.218007,-0.07822 -0.327406,-0.116933 -0.0075,-0.125161 -0.01532,-0.249716 -0.02339,-0.374176 z" />
      </g>
    </g>
    <path
       style="fill:#ffffff;fill-opacity:1;stroke:#000000;stroke-width:0.26458332px;stroke-linecap:butt;stroke-linejoin:miter;stroke-opacity:1"
       d="m 128.79894,75.843769 c -1.32122,1.331042 -3.96394,3.993393 -5.28543,5.3259 -1.32149,1.332507 -1.32149,1.335307 -1.32144,1.342558 5e-5,0.0072 1.3e-4,0.01688 0.009,2.946622 0.009,2.92974 0.0266,8.497337 0.0375,11.350896 0.011,2.85356 0.0159,2.851932 0.0221,2.85081 0.006,-0.0011 0.0195,-0.0028 1.65417,-0.331269 1.63467,-0.328503 5.07091,-1.019925 6.74545,-1.357024 1.67453,-0.3371 1.67647,-0.337778 1.67761,-0.33933 0.001,-0.0016 0.002,-0.0043 -10e-6,-1.206881 -0.002,-1.202615 -0.006,-4.27879 -0.0103,-5.812546 -0.004,-1.533755 -0.0131,-2.08221 -0.0262,-2.467956 -0.0131,-0.385745 -0.0324,-0.719429 -0.0504,-1.051411 -0.0179,-0.331983 -0.0344,-0.66021 -0.0537,-1.019041 -0.0193,-0.358831 -0.0413,-0.747731 -0.0668,-1.107291 -0.0255,-0.359559 -0.0544,-0.690496 -0.0896,-1.104416 -0.0351,-0.41392 -0.0765,-0.911754 -0.16328,-1.617079 -0.0868,-0.705324 -0.21915,-1.619405 -0.31073,-2.19217 -0.0916,-0.572766 -0.14246,-0.804791 -0.19564,-1.053183 -0.0532,-0.248391 -0.10877,-0.513665 -0.16429,-0.780552 -0.0555,-0.266887 -0.1111,-0.536039 -0.17003,-0.80147 -0.0589,-0.265431 -0.12134,-0.527735 -0.1995,-0.81643 -0.0782,-0.288694 -0.17224,-0.604433 -0.27985,-0.923321 -0.1076,-0.318887 -0.22894,-0.641525 -0.30196,-0.832532 -0.073,-0.191007 -0.0978,-0.250629 -0.11154,-0.283113 -0.0137,-0.03248 -0.0164,-0.03812 -0.0185,-0.04194 -0.002,-0.0038 -0.004,-0.0064 -0.005,-0.0076 -8.2e-4,-0.0012 -0.001,-0.0013 -1.32235,1.329791 z"
       id="path877"
       inkscape:connector-curvature="0"
       inkscape:path-effect="#path-effect879"
       inkscape:original-d="m 130.12017,74.512727 c -2.64245,2.662087 -5.28517,5.324436 -7.92815,7.987049 2.7e-4,0.0024 2.7e-4,0.0052 0,0.0083 2.7e-4,0.0114 5.3e-4,0.02103 2.7e-4,0.03196 0.0199,5.848548 0.0359,11.416149 0.0535,17.124619 0.004,-0.0016 0.009,-0.003 0.0124,-0.0041 0.009,-0.0016 0.0223,-0.003 0.0331,-0.0041 3.25853,-0.655876 6.69477,-1.347298 10.04176,-2.020549 0.002,-0.0011 0.004,-0.0016 0.006,-0.0021 5.2e-4,-0.0024 0.001,-0.0051 0.001,-0.0072 -0.003,-2.40317 -0.007,-5.479346 -0.0114,-8.218619 -0.007,-0.328208 -0.0135,-0.876697 -0.0207,-1.314649 -0.019,-0.333552 -0.0383,-0.667236 -0.0579,-1.000455 -0.0162,-0.330748 -0.0328,-0.658969 -0.0496,-0.988055 -0.0218,-0.388575 -0.0438,-0.777478 -0.0661,-1.16582 -0.0287,-0.330782 -0.0576,-0.661723 -0.0868,-0.992188 -0.041,-0.497377 -0.0824,-0.995209 -0.12402,-1.492414 -0.13196,-0.913463 -0.26432,-1.827543 -0.39688,-2.740919 -0.0506,-0.232177 -0.10147,-0.464204 -0.1526,-0.69591 -0.0552,-0.265081 -0.11082,-0.530349 -0.16663,-0.795126 -0.0552,-0.269002 -0.11082,-0.538146 -0.16662,-0.80682 -0.0621,-0.262189 -0.12447,-0.524502 -0.18709,-0.786358 -0.0937,-0.31555 -0.18776,-0.631295 -0.28204,-0.946546 -0.12093,-0.322551 -0.24227,-0.645187 -0.3638,-0.967383 -0.0245,-0.05984 -0.0493,-0.119465 -0.0744,-0.178803 -0.002,-0.0058 -0.005,-0.0113 -0.008,-0.01654 -0.001,-0.0026 -0.003,-0.0051 -0.005,-0.0072 z"
       transform="matrix(1.1790668,0,0,1.1790668,-15.726901,-16.929924)" />
  </g>
</svg>
